# xmcd
#
# Track frame offsets:
#	150
#	12938
#	30532
#	56285
#	73060
#	98394
#	119775
#	150736
#	175207
#	205436
#	246550
#	266652
#	297306
#
# Disc length: 4246 seconds
#
# Revision: 1
# Processed by: cddbd v1.5.1PL2 Copyright (c) Steve Scherf et al.
# Submitted via: audiograbber 1.83.01
#
DISCID=bd10940d
DTITLE=Stevie Ray Vaughan and Double Trouble - Crossfire at Stone Pony
DYEAR=2006
DGENRE=Blues
TTITLE0=Scuttle buttin'
TTITLE1=The house is rockin'
TTITLE2=Pride and joy
TTITLE3=Tightrope
TTITLE4=Leave my girl alone
TTITLE5=Superstition
TTITLE6=Willie the wimp
TTITLE7=Crossfire
TTITLE8=Cold shot
TTITLE9=Ain't gone n give up on love
TTITLE10=Look at little sister
TTITLE11=Texas flood
TTITLE12=Say what!
EXTD=Reorded live at Stone Pony, Asbury Park, New Jersey, 29 December 1988
EXTT0=
EXTT1=
EXTT2=
EXTT3=
EXTT4=
EXTT5=
EXTT6=
EXTT7=
EXTT8=
EXTT9=
EXTT10=
EXTT11=
EXTT12=
PLAYORDER=
